# xmcd
#
# Track frame offsets: 
#        150
#        16475
#        26708
#        39373
#        50847
#
# Disc length: 875 seconds
#
# Revision: 0
# Processed by: cddbd v1.5.2PL0 Copyright (c) Steve Scherf et al.
# Submitted via: ExactAudioCopy v0.95b3
#
DISCID=3b036905
DTITLE=Flo and Eddie And The Turtles  - The History of - Disc 3  FLAC
DYEAR=1900
DGENRE=
TTITLE0=The Turtles - Happy Together (Ed Sullivan 5.14.67)
TTITLE1=The Turtles - She'd Rather Be With Me (Ed Sullivan 5.14.67)
TTITLE2=The Turtles - She's My Girl (Ed Sullivan 11.12.67)
TTITLE3=Flo and Eddie - Come To My Rescue Webelos
TTITLE4=The Turtles - Somewhere Friday Night (single version)
EXTD=
EXTT0=
EXTT1=
EXTT2=
EXTT3=
EXTT4=
PLAYORDER=
